<?xml version="1.0" encoding="UTF-8" standalone="no"?>
<!-- Created with Inkscape (http://www.inkscape.org/) -->

<svg
   width="32"
   height="32"
   viewBox="0 0 8.4666665 8.4666666"
   version="1.1"
   id="svg145"
   inkscape:version="1.2.1 (9c6d41e410, 2022-07-14)"
   sodipodi:docname="icon_32.svg"
   xmlns:inkscape="http://www.inkscape.org/namespaces/inkscape"
   xmlns:sodipodi="http://sodipodi.sourceforge.net/DTD/sodipodi-0.dtd"
   xmlns="http://www.w3.org/2000/svg"
   xmlns:svg="http://www.w3.org/2000/svg">
  <sodipodi:namedview
     id="namedview147"
     pagecolor="#ffffff"
     bordercolor="#666666"
     borderopacity="1.0"
     inkscape:showpageshadow="2"
     inkscape:pageopacity="0.0"
     inkscape:pagecheckerboard="0"
     inkscape:deskcolor="#d1d1d1"
     inkscape:document-units="px"
     showgrid="false"
     inkscape:zoom="12.500449"
     inkscape:cx="2.7599009"
     inkscape:cy="16.759398"
     inkscape:window-width="1920"
     inkscape:window-height="1058"
     inkscape:window-x="-8"
     inkscape:window-y="-8"
     inkscape:window-maximized="1"
     inkscape:current-layer="layer1" />
  <defs
     id="defs142" />
  <g
     inkscape:label="Calque 1"
     inkscape:groupmode="layer"
     id="layer1">
    <path
       style="fill:#ea4335;fill-opacity:1;stroke:#2a2a2a;stroke-width:0.0025861;stroke-dasharray:none"
       d="m 2.8338663,1.9879156 -0.88089,-0.00275 -0.00664,-0.1761986 C 1.9339179,1.4794997 1.9384103,1.0664943 1.9552598,0.9917686 2.0233141,0.68977903 2.3438049,0.46187205 2.8492083,0.35606637 3.06868,0.31012097 3.2487319,0.29215509 3.5579805,0.28535513 4.5542242,0.2634588 5.1926388,0.49804917 5.3990285,0.96190525 5.4572385,1.0927301 5.4594775,1.1154226 5.4594775,1.5748915 V 1.9958598 L 4.5871219,1.9932691 C 4.1073226,1.9918412 3.3183594,1.9894344 2.83387,1.987925 Z m 0.013325,-0.4907618 c 0.2326978,-0.1158672 0.233542,-0.4770486 0.0014,-0.60266589 -0.032766,-0.017734 -0.066999,-0.0250805 -0.1329107,-0.0285914 -0.083636,-0.004454 -0.092522,-0.002776 -0.1533798,0.0285544 C 2.4459086,0.95438741 2.3824665,1.0611384 2.3824665,1.197063 c 0,0.1285746 0.059473,0.2356576 0.1638979,0.2951094 0.096624,0.055008 0.1969855,0.056664 0.3008185,0.00496 z"
       id="path1775" />
    <path
       style="fill:#fbbc05;fill-opacity:1;stroke:#2a2a2a;stroke-width:0.0025861;stroke-dasharray:none"
       d="M 1.4834841,3.2793902 C 1.0974465,2.8309205 0.76831472,2.4473733 0.75207961,2.4270629 0.72377733,2.3916676 0.72336214,2.389638 0.74197239,2.3782081 0.78758174,2.35016 0.89872902,2.3048146 0.97377526,2.2836029 l 0.0809142,-0.022873 2.2030723,-0.00302 2.2030715,-0.00302 -0.00375,0.4577595 c -0.00366,0.4539538 -0.00394,0.4586023 -0.029998,0.5590922 -0.087949,0.3391185 -0.3146722,0.5599026 -0.6735612,0.6559141 -0.145228,0.038852 -0.2220355,0.041523 -1.1953115,0.041566 -0.8089281,3.17e-5 -0.9707283,0.00253 -1.0513121,0.016213 -0.099088,0.016793 -0.217655,0.054128 -0.2833457,0.089184 l -0.038221,0.020411 z"
       id="path2848" />
    <path
       style="fill:#34a853;fill-opacity:1;stroke:#2a2a2a;stroke-width:0.0025861;stroke-dasharray:none"
       d="M 0.92825548,5.9429944 C 0.6517084,5.8699604 0.43138538,5.6663269 0.28053066,5.3443355 0.22479648,5.2253734 0.15314223,4.9985346 0.12491241,4.8516874 0.05248148,4.474911 0.03752519,3.9468878 0.08852513,3.5670697 0.14339722,3.1584134 0.27453733,2.8222882 0.46535201,2.6012237 L 0.51356711,2.5453655 1.2480066,3.3992698 1.9824465,4.253174 1.939215,4.3086919 C 1.8282599,4.4511817 1.7573345,4.6245646 1.7217903,4.8402052 1.7040409,4.9479076 1.7019993,5.0119375 1.7019993,5.4617643 V 5.9632498 L 1.3505291,5.9624713 C 1.0496173,5.9618048 0.98887079,5.9590026 0.92825548,5.9430002 Z"
       id="path3990" />
    <path
       style="fill:#4285f4;fill-opacity:1;stroke:#2a2a2a;stroke-width:0.0025861;stroke-dasharray:none"
       d="M 3.3809832,7.8820928 C 2.7915231,7.8280487 2.3989108,7.6855452 2.1648008,7.4406622 2.0544798,7.3252658 1.9804463,7.1865323 1.9550851,7.0476726 1.9467121,7.0019192 1.9444286,6.7094047 1.9468851,6.0002789 l 0.00339,-0.9839153 0.026366,-0.1006296 c 0.097523,-0.3720154 0.318078,-0.5805708 0.7233804,-0.6840156 0.061165,-0.015599 0.1887889,-0.018421 1.1209141,-0.024574 1.1574959,-0.00767 1.0977536,-0.00419 1.2825971,-0.07475 0.1674752,-0.063932 0.3117,-0.180176 0.4104319,-0.3308088 0.048539,-0.074056 0.118074,-0.2329795 0.1420032,-0.324566 0.045325,-0.1734624 0.051165,-0.26253 0.051228,-0.7810661 l 5.95e-5,-0.4901232 0.3666452,0.00442 c 0.4084324,0.00494 0.4195569,0.00652 0.5689309,0.08165 0.3911118,0.1967048 0.6328578,0.6936042 0.69238,1.4231567 0.015195,0.1861874 0.012836,0.6104093 -0.00429,0.7776102 -0.069099,0.6740197 -0.2977183,1.1101934 -0.6880873,1.3127736 -0.059064,0.030653 -0.1429342,0.063451 -0.2016012,0.078843 L 6.3407865,5.9106321 5.0176498,5.9104214 3.6945126,5.9102105 v 0.1376046 0.1376045 h 0.8850047 0.8850049 l -1.2e-4,0.473443 C 5.464276,7.1682262 5.4625822,7.1882779 5.4097662,7.3001909 5.2715448,7.5931507 4.8960649,7.7821071 4.2912619,7.8630706 c -0.12069,0.016141 -0.7891583,0.030111 -0.9102906,0.019 z M 4.834137,7.285999 C 4.905742,7.252884 4.952768,7.207372 4.9897726,7.1354385 5.0209466,7.0748535 5.0240606,7.0607115 5.0242676,6.9789063 5.0244515,6.9090423 5.0196976,6.8780696 5.0029196,6.8400759 4.9733036,6.7730089 4.9144636,6.707694 4.853263,6.6739676 c -0.04507,-0.024827 -0.062742,-0.02823 -0.1473011,-0.02823 -0.084558,0 -0.102231,0.00336 -0.1473011,0.02823 -0.061286,0.033766 -0.120143,0.099153 -0.1495325,0.1661083 -0.032593,0.074211 -0.030447,0.1987786 0.00474,0.2772817 0.075165,0.1677079 0.2610709,0.242306 0.4202714,0.168642 z"
       id="path4720" />
    <path
       style="fill:#000000;fill-opacity:0;stroke:#2a2a2a;stroke-width:0.144307;stroke-dasharray:none"
       id="path5769"
       sodipodi:type="arc"
       sodipodi:cx="8.4692812"
       sodipodi:cy="-2.4658988"
       sodipodi:rx="1.0972692"
       sodipodi:ry="1.0523417"
       sodipodi:start="0"
       sodipodi:end="6.2773432"
       sodipodi:arc-type="arc"
       d="M 9.5665504,-2.4658988 A 1.0972692,1.0523417 0 0 1 8.4708838,-1.4135582 1.0972692,1.0523417 0 0 1 7.3720167,-2.4628248 1.0972692,1.0523417 0 0 1 8.4644734,-3.5182304 1.0972692,1.0523417 0 0 1 9.5665316,-2.4720466"
       sodipodi:open="true"
       transform="matrix(0.57966266,0.81485655,-0.78913768,0.61421635,0,0)" />
    <path
       style="fill:none;stroke:#2a2a2a;stroke-width:0.234068;stroke-linecap:butt;stroke-linejoin:miter;stroke-dasharray:none;stroke-opacity:1"
       d="M 7.4465891,6.2204181 8.35688,7.564045"
       id="path5869" />
    <rect
       style="fill:#ea4335;fill-opacity:1;stroke:#ea4335;stroke-width:0;stroke-dasharray:none;stroke-opacity:1"
       id="rect5923"
       width="1.2998945"
       height="0.29740447"
       x="4.1644893"
       y="1.9635228"
       ry="0" />
    <rect
       style="fill:#ea4335;fill-opacity:1;stroke:#ea4335;stroke-width:0;stroke-dasharray:none;stroke-opacity:1"
       id="rect6253"
       width="2.2670884"
       height="0.20186435"
       x="2.2073457"
       y="1.0695329"
       transform="matrix(0.651237,0.75887441,-0.73086416,0.68252295,0,0)" />
    <rect
       style="fill:#ea4335;fill-opacity:1;stroke:#ea4335;stroke-width:0;stroke-dasharray:none;stroke-opacity:1"
       id="rect6255"
       width="2.2670884"
       height="0.20186435"
       x="2.219656"
       y="1.0120028"
       transform="matrix(0.651237,0.75887441,-0.73086416,0.68252295,0,0)" />
    <g
       id="g6263"
       style="fill:#34a853;fill-opacity:1"
       transform="matrix(0.91544558,0,0,0.95756828,-3.7142263,-3.0982928)">
      <rect
         style="fill:#34a853;fill-opacity:1;stroke:#ea4335;stroke-width:0;stroke-dasharray:none;stroke-opacity:1"
         id="rect6257"
         width="2.4143498"
         height="0.21604495"
         x="7.4664698"
         y="0.2867384"
         transform="matrix(0.66799742,0.74416359,-0.74596706,0.66598285,0,0)" />
      <rect
         style="fill:#34a853;fill-opacity:1;stroke:#ea4335;stroke-width:0;stroke-dasharray:none;stroke-opacity:1"
         id="rect6259"
         width="2.4143498"
         height="0.21604495"
         x="7.4795794"
         y="0.22516681"
         transform="matrix(0.66799742,0.74416359,-0.74596706,0.66598285,0,0)" />
    </g>
  </g>
</svg>
