<svg class="main-svg" xmlns="http://www.w3.org/2000/svg" xmlns:xlink="http://www.w3.org/1999/xlink" width="950" height="700" style="" viewBox="0 0 950 700"><rect x="0" y="0" width="950" height="700" style="fill: rgb(255, 255, 255); fill-opacity: 1;"/><defs id="defs-8544e2"><g class="clips"><clipPath id="clip8544e2xyplot" class="plotclip"><rect width="719.0999999999999" height="467"/></clipPath><clipPath id="clip8544e2xy2plot" class="plotclip"><rect width="719.0999999999999" height="467"/></clipPath><clipPath class="axesclip" id="clip8544e2x"><rect x="105" y="0" width="719.0999999999999" height="700"/></clipPath><clipPath class="axesclip" id="clip8544e2y"><rect x="0" y="105" width="950" height="467"/></clipPath><clipPath class="axesclip" id="clip8544e2xy"><rect x="105" y="105" width="719.0999999999999" height="467"/></clipPath><clipPath class="axesclip" id="clip8544e2y2"><rect x="0" y="105" width="950" height="467"/></clipPath><clipPath class="axesclip" id="clip8544e2xy2"><rect x="105" y="105" width="719.0999999999999" height="467"/></clipPath></g><g class="gradients"/><g class="patterns"/></defs><g class="bglayer"/><g class="layer-below"><g class="imagelayer"/><g class="shapelayer"/></g><g class="cartesianlayer"><g class="subplot xy"><g class="layer-subplot"><g class="shapelayer"/><g class="imagelayer"/></g><g class="minor-gridlayer"><g class="x"/><g class="y"/><g class="y2"/></g><g class="gridlayer"><g class="x"/><g class="y"/><g class="y2"/></g><g class="zerolinelayer"/><path class="xlines-below"/><path class="ylines-below"/><g class="overlines-below"><path class="xy2-x"/><path class="xy2-y"/></g><g class="xaxislayer-below"/><g class="yaxislayer-below"/><g class="overaxes-below"><g class="xy2-x"/><g class="xy2-y"/></g><g class="plot" transform="translate(105,105)" clip-path="url(#clip8544e2xyplot)"><g class="scatterlayer mlayer"><g class="trace scatter tracee5b51b" style="stroke-miterlimit: 2; opacity: 1;"><g class="fills"/><g class="errorbars"/><g class="lines"><path class="js-line" d="M0,268.61L4.47,268.48L8.93,269.97L13.4,266.58L17.87,267.51L22.33,266.09L26.8,267.09L31.27,265.14L35.73,268.31L40.2,266.76L44.66,270.87L49.13,269.54L53.6,271.32L58.06,268.99L62.53,269.5L67,268.58L71.46,269.72L75.93,267.85L80.4,269.58L84.86,267.86L89.33,269.34L93.8,267.21L98.26,269.94L102.73,265.02L107.2,265.85L111.66,264.04L116.13,267.04L120.59,265.3L125.06,267.66L129.53,266.35L133.99,269.47L138.46,266L142.93,267.35L147.39,263.12L151.86,264.97L156.33,262.8L160.79,265.01L165.26,260.18L169.73,263.42L174.19,262.09L178.66,118.74L183.12,124.08L187.59,205.67L192.06,214.1L196.52,191.62L200.99,90.61L205.46,102.04L209.92,56L214.39,143.08L218.86,174.09L223.32,171.37L227.79,128.24L232.26,168.66L236.72,122.95L241.19,178.54L245.66,100.79L250.12,101.32L259.05,187.06L263.52,159.77L267.99,115.69L272.45,116.98L276.92,146.23L281.39,135.36L285.85,108.53L290.32,113.91L294.79,163.42L299.25,185.39L303.72,197.63L308.19,138.06L312.65,170.49L317.12,168.98L321.59,126.99L326.05,143.63L330.52,158.4L334.98,90.83L339.45,116.99L343.92,53.72L348.38,45.85L352.85,32.82L357.32,26.16L361.78,23.35L366.25,156.83L370.72,148.98L375.18,94.84L379.65,56.77L384.12,94.9L388.58,162.77L397.51,130.25L401.98,137.99L406.45,69.12L410.91,105.3L415.38,109.08L419.85,156.11L424.31,105.5L428.78,102.29L433.25,137.26L437.71,153.94L442.18,101.6L446.65,115.54L451.11,146.36L455.58,156.05L460.05,50.31L464.51,123.1L468.98,172.51L473.44,181.06L477.91,179.46L482.38,158.47L486.84,180.6L491.31,207.76L495.78,194.11L500.24,198.48L504.71,203.93L509.18,191.87L513.64,151.25L518.11,162.27L522.58,157.69L527.04,173.5L531.51,155.21L535.98,161.18L549.37,71.93L553.84,100.25L558.31,138.86L562.77,117.84L567.24,133.6L571.71,182.59L576.17,143.91L580.64,148.58L585.11,125.06L589.57,122.58L594.04,73.1L598.51,89.47L602.97,98.42L607.44,172.1L611.9,82.96L616.37,122.05L620.84,134.12L625.3,184.73L629.77,192.63L634.24,187.21L638.7,168.59L643.17,176.01L647.64,99.72L652.1,130.27L656.57,195.85L661.04,209.1L665.5,196.35L669.97,201.77L674.44,185.26L678.9,216.89L683.37,212.1L687.83,222.86L692.3,216.02L696.77,206.82L701.23,174.94L705.7,174.98L710.17,151.65L714.63,186.34L719.1,443.65" style="vector-effect: non-scaling-stroke; fill: none; stroke: rgb(31, 119, 180); stroke-opacity: 1; stroke-width: 2px; opacity: 1;"/></g><g class="points"/><g class="text"/></g></g></g><g class="overplot"><g class="xy2" transform="translate(105,105)" clip-path="url(#clip8544e2xy2plot)"><g class="scatterlayer mlayer"><g class="trace scatter trace5e3dda" style="stroke-miterlimit: 2; opacity: 1;"><g class="fills"/><g class="errorbars"/><g class="lines"><path class="js-line" d="M0,407.42L4.47,395.93L8.93,366.21L13.4,386.91L17.87,388.83L22.33,271.4L26.8,238.03L31.27,349.41L35.73,386.68L40.2,232.82L44.66,107.49L49.13,80.23L53.6,98.27L58.06,77.69L62.53,94.73L67,142.58L71.46,166.51L75.93,121.14L80.4,114.15L84.86,122.65L89.33,69.45L93.8,174.55L98.26,237.83L102.73,385.51L107.2,338.49L111.66,185.87L116.13,229.45L120.59,76.79L125.06,82.35L129.53,58.86L133.99,61.46L138.46,66.17L142.93,82.11L147.39,59.09L151.86,92.61L156.33,94.11L160.79,207.19L165.26,406.35L169.73,430.76L174.19,341.96L178.66,214.55L183.12,279.86L187.59,333.68L192.06,373.43L196.52,293.13L200.99,58.03L205.46,164.75L209.92,347.71L214.39,277.44L218.86,240.81L223.32,228.75L227.79,105.93L232.26,106.32L241.19,172.3L245.66,97.14L250.12,134.02L254.59,90.99L259.05,262.47L263.52,207.01L267.99,223.1L272.45,365.45L276.92,335.83L281.39,379.7L285.85,264.55L290.32,217.27L294.79,262.39L299.25,275.75L308.19,416.65L312.65,422.45L317.12,357.2L321.59,223.97L326.05,28.14L330.52,204.61L334.98,346.82L339.45,333.07L343.92,242.18L348.38,70.9L352.85,57.67L357.32,98.14L361.78,285.54L366.25,311.58L370.72,357.69L375.18,252.95L384.12,70.84L388.58,106.62L393.05,269.98L397.51,370.08L401.98,331.43L406.45,45.42L415.38,50.22L419.85,79.11L424.31,107.1L428.78,388.07L433.25,398.31L437.71,260.22L442.18,136.52L446.65,122.52L451.11,71.71L455.58,92.02L460.05,58.6L464.51,138.33L468.98,182.87L473.44,110.03L477.91,58.21L482.38,57.16L491.31,122.05L495.78,133.03L500.24,366.38L504.71,382.4L509.18,326.99L513.64,335.46L518.11,408.98L522.58,439.11L527.04,419.41L531.51,376.2L535.98,137.32L540.44,211.29L544.91,416.18L549.37,434.45L553.84,441.74L558.31,443.65L562.77,429.1L567.24,234.77L571.71,122.09L576.17,102.17L580.64,151.41L585.11,131.98L589.57,135.96L594.04,151.25L598.51,256.63L602.97,220.64L607.44,325.84L611.9,389.34L616.37,394.27L620.84,333.17L625.3,211.54L629.77,373.31L634.24,382.17L638.7,380.62L643.17,278.75L647.64,307.58L652.1,55.42L656.57,44.53L661.04,272.97L665.5,295.11L669.97,91.41L674.44,291.33L678.9,105.14L683.37,28.51L687.83,35.09L692.3,30.69L696.77,45.7L701.23,23.35L705.7,230.94L710.17,191.02L714.63,94.68L719.1,220.34" style="vector-effect: non-scaling-stroke; fill: none; stroke: rgb(255, 127, 14); stroke-opacity: 1; stroke-width: 2px; opacity: 1;"/></g><g class="points"/><g class="text"/></g></g></g></g><path class="xlines-above crisp" d="M104,572.5H825.0999999999999" style="fill: none; stroke-width: 1px; stroke: rgb(36, 36, 36); stroke-opacity: 1;"/><path class="ylines-above crisp" d="M104.5,105V572" style="fill: none; stroke-width: 1px; stroke: rgb(36, 36, 36); stroke-opacity: 1;"/><g class="overlines-above"><path class="xy2-x crisp" d="M0,0" style="fill: none;"/><path class="xy2-y crisp" d="M824.5999999999999,105V572" style="fill: none; stroke-width: 1px; stroke: rgb(36, 36, 36); stroke-opacity: 1;"/></g><g class="xaxislayer-above"><path class="xtick ticks crisp" d="M0,573v5" transform="translate(122.87,0)" style="stroke: rgb(68, 68, 68); stroke-opacity: 1; stroke-width: 1px;"/><path class="xtick ticks crisp" d="M0,573v5" transform="translate(247.93,0)" style="stroke: rgb(68, 68, 68); stroke-opacity: 1; stroke-width: 1px;"/><path class="xtick ticks crisp" d="M0,573v5" transform="translate(372.99,0)" style="stroke: rgb(68, 68, 68); stroke-opacity: 1; stroke-width: 1px;"/><path class="xtick ticks crisp" d="M0,573v5" transform="translate(498.05,0)" style="stroke: rgb(68, 68, 68); stroke-opacity: 1; stroke-width: 1px;"/><path class="xtick ticks crisp" d="M0,573v5" transform="translate(623.11,0)" style="stroke: rgb(68, 68, 68); stroke-opacity: 1; stroke-width: 1px;"/><path class="xtick ticks crisp" d="M0,573v5" transform="translate(748.17,0)" style="stroke: rgb(68, 68, 68); stroke-opacity: 1; stroke-width: 1px;"/><g class="xtick"><text text-anchor="middle" x="0" y="609.2" transform="translate(122.87,0)" style="font-family: 'Open Sans', verdana, arial, sans-serif; font-size: 26px; fill: rgb(36, 36, 36); fill-opacity: 1; white-space: pre; opacity: 1;"><tspan class="line" dy="0em" x="0" y="609.2">Nov 25</tspan><tspan class="line" dy="1.3em" x="0" y="609.2">2018</tspan></text></g><g class="xtick"><text text-anchor="middle" x="0" y="609.2" style="font-family: 'Open Sans', verdana, arial, sans-serif; font-size: 26px; fill: rgb(36, 36, 36); fill-opacity: 1; white-space: pre; opacity: 1;" transform="translate(247.93,0)">Dec 9</text></g><g class="xtick"><text text-anchor="middle" x="0" y="609.2" style="font-family: 'Open Sans', verdana, arial, sans-serif; font-size: 26px; fill: rgb(36, 36, 36); fill-opacity: 1; white-space: pre; opacity: 1;" transform="translate(372.99,0)">Dec 23</text></g><g class="xtick"><text text-anchor="middle" x="0" y="609.2" style="font-family: 'Open Sans', verdana, arial, sans-serif; font-size: 26px; fill: rgb(36, 36, 36); fill-opacity: 1; white-space: pre; opacity: 1;" transform="translate(498.05,0)"><tspan class="line" dy="0em" x="0" y="609.2">Jan 6</tspan><tspan class="line" dy="1.3em" x="0" y="609.2">2019</tspan></text></g><g class="xtick"><text text-anchor="middle" x="0" y="609.2" style="font-family: 'Open Sans', verdana, arial, sans-serif; font-size: 26px; fill: rgb(36, 36, 36); fill-opacity: 1; white-space: pre; opacity: 1;" transform="translate(623.11,0)">Jan 20</text></g><g class="xtick"><text text-anchor="middle" x="0" y="609.2" style="font-family: 'Open Sans', verdana, arial, sans-serif; font-size: 26px; fill: rgb(36, 36, 36); fill-opacity: 1; white-space: pre; opacity: 1;" transform="translate(748.17,0)">Feb 3</text></g></g><g class="yaxislayer-above"><path class="ytick ticks crisp" d="M104,0h-5" transform="translate(0,569.1)" style="stroke: rgb(68, 68, 68); stroke-opacity: 1; stroke-width: 1px;"/><path class="ytick ticks crisp" d="M104,0h-5" transform="translate(0,521.27)" style="stroke: rgb(68, 68, 68); stroke-opacity: 1; stroke-width: 1px;"/><path class="ytick ticks crisp" d="M104,0h-5" transform="translate(0,473.44)" style="stroke: rgb(68, 68, 68); stroke-opacity: 1; stroke-width: 1px;"/><path class="ytick ticks crisp" d="M104,0h-5" transform="translate(0,425.61)" style="stroke: rgb(68, 68, 68); stroke-opacity: 1; stroke-width: 1px;"/><path class="ytick ticks crisp" d="M104,0h-5" transform="translate(0,377.78)" style="stroke: rgb(68, 68, 68); stroke-opacity: 1; stroke-width: 1px;"/><path class="ytick ticks crisp" d="M104,0h-5" transform="translate(0,329.95)" style="stroke: rgb(68, 68, 68); stroke-opacity: 1; stroke-width: 1px;"/><path class="ytick ticks crisp" d="M104,0h-5" transform="translate(0,282.12)" style="stroke: rgb(68, 68, 68); stroke-opacity: 1; stroke-width: 1px;"/><path class="ytick ticks crisp" d="M104,0h-5" transform="translate(0,234.29)" style="stroke: rgb(68, 68, 68); stroke-opacity: 1; stroke-width: 1px;"/><path class="ytick ticks crisp" d="M104,0h-5" transform="translate(0,186.45999999999998)" style="stroke: rgb(68, 68, 68); stroke-opacity: 1; stroke-width: 1px;"/><path class="ytick ticks crisp" d="M104,0h-5" transform="translate(0,138.63)" style="stroke: rgb(68, 68, 68); stroke-opacity: 1; stroke-width: 1px;"/><g class="ytick"><text text-anchor="end" x="93.8" y="9.1" transform="translate(0,569.1)" style="font-family: 'Open Sans', verdana, arial, sans-serif; font-size: 26px; fill: rgb(36, 36, 36); fill-opacity: 1; white-space: pre; opacity: 1;">370</text></g><g class="ytick"><text text-anchor="end" x="93.8" y="9.1" style="font-family: 'Open Sans', verdana, arial, sans-serif; font-size: 26px; fill: rgb(36, 36, 36); fill-opacity: 1; white-space: pre; opacity: 1;" transform="translate(0,521.27)">375</text></g><g class="ytick"><text text-anchor="end" x="93.8" y="9.1" style="font-family: 'Open Sans', verdana, arial, sans-serif; font-size: 26px; fill: rgb(36, 36, 36); fill-opacity: 1; white-space: pre; opacity: 1;" transform="translate(0,473.44)">380</text></g><g class="ytick"><text text-anchor="end" x="93.8" y="9.1" style="font-family: 'Open Sans', verdana, arial, sans-serif; font-size: 26px; fill: rgb(36, 36, 36); fill-opacity: 1; white-space: pre; opacity: 1;" transform="translate(0,425.61)">385</text></g><g class="ytick"><text text-anchor="end" x="93.8" y="9.1" style="font-family: 'Open Sans', verdana, arial, sans-serif; font-size: 26px; fill: rgb(36, 36, 36); fill-opacity: 1; white-space: pre; opacity: 1;" transform="translate(0,377.78)">390</text></g><g class="ytick"><text text-anchor="end" x="93.8" y="9.1" style="font-family: 'Open Sans', verdana, arial, sans-serif; font-size: 26px; fill: rgb(36, 36, 36); fill-opacity: 1; white-space: pre; opacity: 1;" transform="translate(0,329.95)">395</text></g><g class="ytick"><text text-anchor="end" x="93.8" y="9.1" style="font-family: 'Open Sans', verdana, arial, sans-serif; font-size: 26px; fill: rgb(36, 36, 36); fill-opacity: 1; white-space: pre; opacity: 1;" transform="translate(0,282.12)">400</text></g><g class="ytick"><text text-anchor="end" x="93.8" y="9.1" style="font-family: 'Open Sans', verdana, arial, sans-serif; font-size: 26px; fill: rgb(36, 36, 36); fill-opacity: 1; white-space: pre; opacity: 1;" transform="translate(0,234.29)">405</text></g><g class="ytick"><text text-anchor="end" x="93.8" y="9.1" style="font-family: 'Open Sans', verdana, arial, sans-serif; font-size: 26px; fill: rgb(36, 36, 36); fill-opacity: 1; white-space: pre; opacity: 1;" transform="translate(0,186.45999999999998)">410</text></g><g class="ytick"><text text-anchor="end" x="93.8" y="9.1" style="font-family: 'Open Sans', verdana, arial, sans-serif; font-size: 26px; fill: rgb(36, 36, 36); fill-opacity: 1; white-space: pre; opacity: 1;" transform="translate(0,138.63)">415</text></g></g><g class="overaxes-above"><g class="xy2-x"/><g class="xy2-y"><path class="y2tick ticks crisp" d="M825.0999999999999,0h5" transform="translate(0,531.86)" style="stroke: rgb(68, 68, 68); stroke-opacity: 1; stroke-width: 1px;"/><path class="y2tick ticks crisp" d="M825.0999999999999,0h5" transform="translate(0,481.68)" style="stroke: rgb(68, 68, 68); stroke-opacity: 1; stroke-width: 1px;"/><path class="y2tick ticks crisp" d="M825.0999999999999,0h5" transform="translate(0,431.49)" style="stroke: rgb(68, 68, 68); stroke-opacity: 1; stroke-width: 1px;"/><path class="y2tick ticks crisp" d="M825.0999999999999,0h5" transform="translate(0,381.3)" style="stroke: rgb(68, 68, 68); stroke-opacity: 1; stroke-width: 1px;"/><path class="y2tick ticks crisp" d="M825.0999999999999,0h5" transform="translate(0,331.12)" style="stroke: rgb(68, 68, 68); stroke-opacity: 1; stroke-width: 1px;"/><path class="y2tick ticks crisp" d="M825.0999999999999,0h5" transform="translate(0,280.93)" style="stroke: rgb(68, 68, 68); stroke-opacity: 1; stroke-width: 1px;"/><path class="y2tick ticks crisp" d="M825.0999999999999,0h5" transform="translate(0,230.74)" style="stroke: rgb(68, 68, 68); stroke-opacity: 1; stroke-width: 1px;"/><path class="y2tick ticks crisp" d="M825.0999999999999,0h5" transform="translate(0,180.56)" style="stroke: rgb(68, 68, 68); stroke-opacity: 1; stroke-width: 1px;"/><path class="y2tick ticks crisp" d="M825.0999999999999,0h5" transform="translate(0,130.37)" style="stroke: rgb(68, 68, 68); stroke-opacity: 1; stroke-width: 1px;"/><g class="y2tick"><text text-anchor="start" x="835.3" y="9.1" transform="translate(0,531.86)" style="font-family: 'Open Sans', verdana, arial, sans-serif; font-size: 26px; fill: rgb(36, 36, 36); fill-opacity: 1; white-space: pre; opacity: 1;">10k</text></g><g class="y2tick"><text text-anchor="start" x="835.3" y="9.1" style="font-family: 'Open Sans', verdana, arial, sans-serif; font-size: 26px; fill: rgb(36, 36, 36); fill-opacity: 1; white-space: pre; opacity: 1;" transform="translate(0,481.68)">20k</text></g><g class="y2tick"><text text-anchor="start" x="835.3" y="9.1" style="font-family: 'Open Sans', verdana, arial, sans-serif; font-size: 26px; fill: rgb(36, 36, 36); fill-opacity: 1; white-space: pre; opacity: 1;" transform="translate(0,431.49)">30k</text></g><g class="y2tick"><text text-anchor="start" x="835.3" y="9.1" style="font-family: 'Open Sans', verdana, arial, sans-serif; font-size: 26px; fill: rgb(36, 36, 36); fill-opacity: 1; white-space: pre; opacity: 1;" transform="translate(0,381.3)">40k</text></g><g class="y2tick"><text text-anchor="start" x="835.3" y="9.1" style="font-family: 'Open Sans', verdana, arial, sans-serif; font-size: 26px; fill: rgb(36, 36, 36); fill-opacity: 1; white-space: pre; opacity: 1;" transform="translate(0,331.12)">50k</text></g><g class="y2tick"><text text-anchor="start" x="835.3" y="9.1" style="font-family: 'Open Sans', verdana, arial, sans-serif; font-size: 26px; fill: rgb(36, 36, 36); fill-opacity: 1; white-space: pre; opacity: 1;" transform="translate(0,280.93)">60k</text></g><g class="y2tick"><text text-anchor="start" x="835.3" y="9.1" style="font-family: 'Open Sans', verdana, arial, sans-serif; font-size: 26px; fill: rgb(36, 36, 36); fill-opacity: 1; white-space: pre; opacity: 1;" transform="translate(0,230.74)">70k</text></g><g class="y2tick"><text text-anchor="start" x="835.3" y="9.1" style="font-family: 'Open Sans', verdana, arial, sans-serif; font-size: 26px; fill: rgb(36, 36, 36); fill-opacity: 1; white-space: pre; opacity: 1;" transform="translate(0,180.56)">80k</text></g><g class="y2tick"><text text-anchor="start" x="835.3" y="9.1" style="font-family: 'Open Sans', verdana, arial, sans-serif; font-size: 26px; fill: rgb(36, 36, 36); fill-opacity: 1; white-space: pre; opacity: 1;" transform="translate(0,130.37)">90k</text></g></g></g></g><g class="subplot xy2"/></g><g class="polarlayer"/><g class="smithlayer"/><g class="ternarylayer"/><g class="geolayer"/><g class="funnelarealayer"/><g class="pielayer"/><g class="iciclelayer"/><g class="treemaplayer"/><g class="sunburstlayer"/><g class="glimages"/><defs id="topdefs-8544e2"><g class="clips"/><clipPath id="legend8544e2"><rect width="328" height="84" x="0" y="0"/></clipPath></defs><g class="layer-above"><g class="imagelayer"/><g class="shapelayer"/></g><g class="infolayer"><g class="legend" pointer-events="all" transform="translate(525.75,11.600000000000023)"><rect class="bg" shape-rendering="crispEdges" style="stroke: rgb(68, 68, 68); stroke-opacity: 1; fill: rgb(255, 255, 255); fill-opacity: 1; stroke-width: 0px;" width="328" height="84" x="0" y="0"/><g class="scrollbox" transform="" clip-path="url(#legend8544e2)"><g class="groups"><g class="traces" transform="translate(0,23.400000000000002)" style="opacity: 1;"><text class="legendtext" text-anchor="start" x="40" y="10.14" style="font-family: 'Open Sans', verdana, arial, sans-serif; font-size: 26px; fill: rgb(36, 36, 36); fill-opacity: 1; white-space: pre;">DC Total Energy</text><g class="layers" style="opacity: 1;"><g class="legendfill"/><g class="legendlines"><path class="js-line" d="M5,0h30" style="fill: none; stroke: rgb(31, 119, 180); stroke-opacity: 1; stroke-width: 2px;"/></g><g class="legendsymbols"><g class="legendpoints"/></g></g><rect class="legendtoggle" x="0" y="-18.400000000000002" width="322.40625" height="36.800000000000004" style="fill: rgb(0, 0, 0); fill-opacity: 0;"/></g><g class="traces" transform="translate(0,60.2)" style="opacity: 1;"><text class="legendtext" text-anchor="start" x="40" y="10.14" style="font-family: 'Open Sans', verdana, arial, sans-serif; font-size: 26px; fill: rgb(36, 36, 36); fill-opacity: 1; white-space: pre;">Grid Renewable Energy</text><g class="layers" style="opacity: 1;"><g class="legendfill"/><g class="legendlines"><path class="js-line" d="M5,0h30" style="fill: none; stroke: rgb(255, 127, 14); stroke-opacity: 1; stroke-width: 2px;"/></g><g class="legendsymbols"><g class="legendpoints"/></g></g><rect class="legendtoggle" x="0" y="-18.400000000000002" width="322.40625" height="36.800000000000004" style="fill: rgb(0, 0, 0); fill-opacity: 0;"/></g></g></g><rect class="scrollbar" rx="20" ry="3" width="0" height="0" style="fill: rgb(128, 139, 164); fill-opacity: 1;" x="0" y="0"/></g><g class="g-gtitle"><text class="gtitle" x="47.5" y="52.5" text-anchor="start" dy="0em" style="font-family: 'Open Sans', verdana, arial, sans-serif; font-size: 36px; fill: rgb(36, 36, 36); opacity: 1; font-weight: normal; white-space: pre;">Clean Energy Adaptability</text></g><g class="g-xtitle"><text class="xtitle" x="464.54999999999995" y="687.7" text-anchor="middle" style="font-family: 'Open Sans', verdana, arial, sans-serif; font-size: 31px; fill: rgb(36, 36, 36); opacity: 1; font-weight: normal; white-space: pre;">Date</text></g><g class="g-ytitle" transform="translate(20.5126953125,0)"><text class="ytitle" transform="rotate(-90,12.487499999999997,338.5)" x="12.487499999999997" y="338.5" text-anchor="middle" style="font-family: 'Open Sans', verdana, arial, sans-serif; font-size: 31px; fill: rgb(36, 36, 36); opacity: 1; font-weight: normal; white-space: pre;">Consumption <tspan style="font-weight:bold">kWh</tspan></text></g><g class="g-y2title"><text class="y2title" transform="rotate(-90,915.746875,338.5)" x="915.746875" y="338.5" text-anchor="middle" style="font-family: 'Open Sans', verdana, arial, sans-serif; font-size: 31px; fill: rgb(36, 36, 36); opacity: 1; font-weight: normal; white-space: pre;">Production <tspan style="font-weight:bold">MWh</tspan></text></g></g></svg>