<svg class="main-svg" xmlns="http://www.w3.org/2000/svg" xmlns:xlink="http://www.w3.org/1999/xlink" width="950" height="700" style="" viewBox="0 0 950 700"><rect x="0" y="0" width="950" height="700" style="fill: rgb(255, 255, 255); fill-opacity: 1;"/><defs id="defs-116830"><g class="clips"><clipPath id="clip116830xyplot" class="plotclip"><rect width="730.38" height="497"/></clipPath><clipPath id="clip116830xy2plot" class="plotclip"><rect width="730.38" height="497"/></clipPath><clipPath class="axesclip" id="clip116830x"><rect x="93" y="0" width="730.38" height="700"/></clipPath><clipPath class="axesclip" id="clip116830y"><rect x="0" y="112" width="950" height="497"/></clipPath><clipPath class="axesclip" id="clip116830xy"><rect x="93" y="112" width="730.38" height="497"/></clipPath><clipPath class="axesclip" id="clip116830y2"><rect x="0" y="112" width="950" height="497"/></clipPath><clipPath class="axesclip" id="clip116830xy2"><rect x="93" y="112" width="730.38" height="497"/></clipPath></g><g class="gradients"/><g class="patterns"/></defs><g class="bglayer"/><g class="layer-below"><g class="imagelayer"/><g class="shapelayer"/></g><g class="cartesianlayer"><g class="subplot xy"><g class="layer-subplot"><g class="shapelayer"/><g class="imagelayer"/></g><g class="minor-gridlayer"><g class="x"/><g class="y"/><g class="y2"/></g><g class="gridlayer"><g class="x"/><g class="y"/><g class="y2"/></g><g class="zerolinelayer"/><path class="xlines-below"/><path class="ylines-below"/><g class="overlines-below"><path class="xy2-x"/><path class="xy2-y"/></g><g class="xaxislayer-below"/><g class="yaxislayer-below"/><g class="overaxes-below"><g class="xy2-x"/><g class="xy2-y"/></g><g class="plot" transform="translate(93,112)" clip-path="url(#clip116830xyplot)"><g class="scatterlayer mlayer"><g class="trace scatter trace041a37" style="stroke-miterlimit: 2; opacity: 1;"><g class="fills"/><g class="errorbars"/><g class="lines"><path class="js-line" d="M0,334.98L3.23,293.23L4.85,269.37L6.46,269.37L8.08,263.41L9.7,251.48L11.31,245.52L12.93,233.59L14.54,215.7L16.16,215.7L17.77,233.59L19.39,239.55L21.01,227.63L22.62,239.55L24.24,245.52L25.85,251.48L27.47,251.48L29.09,239.55L30.7,245.52L32.32,221.66L33.93,227.63L35.55,251.48L37.17,233.59L40.4,191.84L42.01,191.84L43.63,215.7L45.24,209.73L46.86,221.66L48.48,239.55L50.09,221.66L51.71,245.52L53.32,233.59L54.94,233.59L59.79,281.3L61.4,281.3L63.02,269.37L64.64,245.52L66.25,227.63L67.87,251.48L69.48,269.37L71.1,269.37L72.71,245.52L74.33,233.59L75.95,209.73L77.56,203.77L79.18,209.73L80.79,233.59L84.03,245.52L85.64,221.66L87.26,245.52L88.87,245.52L90.49,257.45L92.11,239.55L98.57,317.09L100.18,311.12L101.8,287.27L103.42,311.12L105.03,305.16L106.65,323.05L108.26,323.05L109.88,346.91L111.5,323.05L113.11,334.98L114.73,340.94L116.34,334.98L119.58,311.12L121.19,323.05L122.81,329.01L124.42,340.94L126.04,323.05L127.65,323.05L129.27,305.16L130.89,317.09L132.5,293.23L134.12,287.27L137.35,329.01L138.97,317.09L140.58,329.01L142.2,305.16L145.43,263.41L147.05,269.37L148.66,257.45L150.28,269.37L151.89,287.27L153.51,281.3L155.12,263.41L156.74,263.41L158.36,275.34L159.97,275.34L161.59,275.34L163.2,281.3L164.82,293.23L166.44,299.19L168.05,305.16L169.67,287.27L171.28,263.41L172.9,275.34L174.52,275.34L176.13,257.45L179.36,215.7L180.98,215.7L182.6,221.66L184.21,203.77L185.83,185.88L187.44,209.73L189.06,227.63L190.67,203.77L192.29,185.88L193.91,179.91L195.52,173.95L197.14,197.81L198.75,215.7L200.37,197.81L201.99,215.7L203.6,215.7L205.22,209.73L206.83,233.59L208.45,245.52L210.07,221.66L211.68,233.59L213.3,233.59L214.91,257.45L216.53,269.37L218.14,263.41L219.76,251.48L221.38,263.41L222.99,287.27L224.61,281.3L226.22,305.16L227.84,323.05L229.46,299.19L231.07,317.09L232.69,311.12L235.92,340.94L237.54,340.94L240.77,340.94L242.38,346.91L244,323.05L245.61,329.01L247.23,323.05L248.85,323.05L250.46,299.19L252.08,293.23L253.69,317.09L255.31,293.23L256.93,275.34L258.54,281.3L260.16,305.16L261.77,293.23L263.39,311.12L265.01,305.16L266.62,287.27L268.24,311.12L269.85,299.19L271.47,317.09L273.08,305.16L274.7,329.01L276.32,311.12L277.93,323.05L279.55,311.12L281.16,317.09L282.78,317.09L284.4,311.12L286.01,334.98L287.63,323.05L289.24,317.09L290.86,293.23L292.48,317.09L294.09,293.23L298.94,239.55L300.55,251.48L302.17,239.55L303.79,215.7L305.4,191.84L307.02,179.91L308.63,197.81L310.25,185.88L311.87,185.88L313.48,173.95L315.1,185.88L316.71,203.77L318.33,203.77L319.95,179.91L321.56,156.06L323.18,156.06L324.79,138.17L326.41,132.2L331.26,132.2L332.87,114.31L334.49,114.31L336.1,108.35L337.72,126.24L339.34,102.38L340.95,96.42L342.57,72.56L344.18,66.6L345.8,66.6L347.42,60.63L349.03,72.56L350.65,96.42L352.26,90.45L355.49,48.71L357.11,66.6L358.73,72.56L360.34,60.63L363.57,72.56L365.19,72.56L366.81,96.42L368.42,90.45L370.04,66.6L371.65,72.56L373.27,96.42L374.89,90.45L376.5,96.42L378.12,84.49L379.73,84.49L381.35,102.38L382.96,108.35L384.58,96.42L386.2,96.42L387.81,108.35L389.43,108.35L391.04,90.45L392.66,108.35L394.28,114.31L395.89,138.17L397.51,114.31L402.36,54.67L403.97,48.71L405.59,72.56L407.2,60.63L408.82,84.49L410.43,84.49L412.05,78.53L413.67,60.63L415.28,54.67L416.9,78.53L418.51,84.49L420.13,84.49L421.75,96.42L423.36,72.56L424.98,96.42L426.59,96.42L428.21,102.38L429.83,78.53L431.44,66.6L433.06,90.45L434.67,78.53L436.29,84.49L439.52,60.63L441.14,84.49L444.37,84.49L445.98,90.45L447.6,66.6L449.22,78.53L450.83,96.42L452.45,72.56L455.68,30.81L457.3,48.71L458.91,24.85L460.53,36.78L462.14,36.78L463.76,60.63L465.37,60.63L466.99,36.78L468.61,54.67L470.22,30.81L471.84,48.71L473.45,48.71L475.07,72.56L476.69,48.71L481.53,102.38L483.15,114.31L484.77,90.45L486.38,102.38L488,126.24L489.61,108.35L491.23,114.31L492.84,138.17L494.46,150.09L496.08,144.13L497.69,156.06L499.31,156.06L502.54,179.91L504.16,162.02L505.77,173.95L507.39,191.84L510.62,150.09L512.24,132.2L513.85,150.09L515.47,144.13L517.08,138.17L518.7,114.31L523.55,96.42L525.16,102.38L528.39,144.13L530.01,138.17L531.63,150.09L533.24,173.95L534.86,191.84L536.47,185.88L538.09,191.84L539.71,179.91L542.94,179.91L544.55,203.77L546.17,227.63L547.79,239.55L549.4,215.7L551.02,203.77L552.63,191.84L554.25,185.88L555.86,209.73L557.48,185.88L559.1,197.81L560.71,203.77L563.94,251.48L565.56,245.52L570.41,281.3L572.02,281.3L575.26,323.05L576.87,305.16L578.49,317.09L580.1,323.05L584.95,388.65L586.57,370.76L588.18,370.76L589.8,358.83L591.41,358.83L593.03,352.87L594.65,358.83L596.26,340.94L597.88,334.98L599.49,346.91L601.11,352.87L602.73,346.91L604.34,358.83L605.96,334.98L607.57,352.87L609.19,346.91L610.8,352.87L612.42,370.76L614.04,364.8L615.65,352.87L617.27,346.91L618.88,323.05L620.5,311.12L622.12,305.16L623.73,329.01L625.35,311.12L626.96,334.98L628.58,334.98L630.2,340.94L631.81,340.94L633.43,317.09L635.04,323.05L638.27,364.8L639.89,346.91L641.51,329.01L643.12,340.94L644.74,364.8L646.35,352.87L647.97,340.94L649.59,346.91L651.2,323.05L652.82,334.98L654.43,358.83L656.05,364.8L657.67,364.8L659.28,388.65L660.9,406.55L662.51,388.65L664.13,400.58L665.74,400.58L667.36,376.73L668.98,376.73L670.59,388.65L672.21,388.65L673.82,364.8L675.44,364.8L677.06,382.69L678.67,382.69L680.29,370.76L681.9,376.73L683.52,382.69L685.14,382.69L686.75,400.58L688.37,382.69L689.98,382.69L691.6,364.8L693.21,376.73L694.83,394.62L698.06,406.55L699.68,424.44L702.91,424.44L704.53,430.4L706.14,448.29L707.76,454.26L709.37,472.15L710.99,448.29L712.61,436.37L714.22,412.51L719.07,394.62L720.68,382.69L722.3,358.83L723.92,382.69L727.15,424.44L728.76,406.55L730.38,394.62" style="vector-effect: non-scaling-stroke; fill: none; stroke: rgb(31, 119, 180); stroke-opacity: 1; stroke-width: 2px; opacity: 1;"/></g><g class="points"/><g class="text"/></g></g></g><g class="overplot"><g class="xy2" transform="translate(93,112)" clip-path="url(#clip116830xy2plot)"><g class="scatterlayer mlayer"><g class="trace scatter tracef6dc6b" style="stroke-miterlimit: 2; opacity: 1;"><g class="fills"/><g class="errorbars"/><g class="lines"><path class="js-line" d="M0,351.98L1.62,338.63L3.23,305.25L4.85,298.57L6.46,318.6L8.08,318.6L9.7,285.22L11.31,285.22L12.93,271.87L14.54,305.25L16.16,305.25L19.39,351.98L21.01,372.01L22.62,338.63L24.24,372.01L30.7,271.87L32.32,285.22L33.93,298.57L35.55,278.54L37.17,285.22L38.78,305.25L40.4,278.54L42.01,291.89L43.63,291.89L45.24,258.51L46.86,271.87L48.48,245.16L51.71,191.75L53.32,205.11L56.56,245.16L58.17,225.13L59.79,205.11L61.4,238.49L64.64,178.4L66.25,198.43L69.48,145.02L71.1,151.7L75.95,171.72L77.56,198.43L80.79,151.7L82.41,124.99L84.03,158.37L85.64,158.37L87.26,138.34L88.87,171.72L90.49,138.34L92.11,138.34L93.72,151.7L95.34,124.99L96.95,98.29L98.57,111.64L100.18,98.29L101.8,64.91L103.42,51.55L105.03,24.85L106.65,38.2L108.26,71.58L111.5,118.32L113.11,138.34L114.73,165.05L116.34,151.7L117.96,118.32L119.58,111.64L121.19,124.99L122.81,118.32L124.42,98.29L126.04,124.99L129.27,171.72L130.89,158.37L132.5,145.02L134.12,151.7L135.73,185.08L137.35,178.4L138.97,178.4L140.58,171.72L142.2,198.43L143.81,165.05L145.43,185.08L147.05,178.4L148.66,145.02L150.28,131.67L151.89,145.02L153.51,111.64L156.74,64.91L158.36,64.91L159.97,58.23L161.59,38.2L163.2,24.85L164.82,38.2L168.05,91.61L169.67,91.61L171.28,84.94L172.9,111.64L174.52,138.34L176.13,138.34L177.75,124.99L179.36,131.67L184.21,191.75L185.83,185.08L187.44,171.72L189.06,165.05L190.67,191.75L192.29,198.43L193.91,185.08L195.52,158.37L197.14,191.75L198.75,158.37L200.37,158.37L201.99,165.05L203.6,151.7L205.22,118.32L206.83,145.02L208.45,145.02L210.07,118.32L211.68,111.64L213.3,138.34L214.91,118.32L216.53,98.29L218.14,124.99L219.76,158.37L221.38,131.67L222.99,151.7L224.61,131.67L226.22,151.7L227.84,131.67L231.07,118.32L232.69,84.94L234.3,64.91L235.92,71.58L237.54,58.23L239.15,91.61L240.77,98.29L242.38,118.32L244,98.29L245.61,131.67L247.23,131.67L248.85,145.02L250.46,178.4L252.08,165.05L253.69,165.05L255.31,151.7L256.93,158.37L258.54,191.75L260.16,158.37L261.77,178.4L263.39,198.43L265.01,231.81L268.24,178.4L269.85,185.08L273.08,231.81L274.7,238.49L276.32,238.49L277.93,218.46L279.55,251.84L281.16,225.13L282.78,218.46L284.4,218.46L286.01,218.46L287.63,238.49L289.24,258.51L290.86,245.16L294.09,198.43L295.71,231.81L297.32,245.16L298.94,245.16L300.55,271.87L302.17,265.19L303.79,278.54L305.4,271.87L307.02,278.54L308.63,305.25L310.25,318.6L311.87,285.22L313.48,278.54L315.1,311.92L319.95,392.04L321.56,358.66L323.18,372.01L324.79,351.98L326.41,345.3L328.02,351.98L329.64,318.6L331.26,338.63L334.49,278.54L336.1,291.89L337.72,318.6L339.34,305.25L342.57,358.66L344.18,345.3L345.8,372.01L347.42,372.01L349.03,365.33L350.65,331.95L352.26,365.33L353.88,372.01L355.49,358.66L357.11,358.66L358.73,365.33L360.34,358.66L361.96,331.95L363.57,338.63L365.19,372.01L366.81,351.98L368.42,378.68L370.04,372.01L371.65,345.3L373.27,345.3L374.89,318.6L376.5,318.6L378.12,305.25L379.73,298.57L384.58,245.16L386.2,238.49L387.81,231.81L389.43,265.19L391.04,231.81L392.66,225.13L394.28,218.46L395.89,251.84L397.51,251.84L399.12,265.19L402.36,251.84L403.97,271.87L405.59,238.49L407.2,238.49L408.82,265.19L410.43,278.54L412.05,258.51L413.67,271.87L415.28,245.16L416.9,238.49L418.51,238.49L420.13,258.51L423.36,291.89L424.98,258.51L426.59,245.16L428.21,238.49L431.44,251.84L433.06,251.84L434.67,251.84L436.29,238.49L437.9,271.87L439.52,278.54L441.14,278.54L442.75,251.84L444.37,285.22L445.98,265.19L447.6,251.84L449.22,245.16L450.83,278.54L452.45,258.51L454.06,271.87L455.68,298.57L457.3,305.25L458.91,318.6L460.53,285.22L462.14,298.57L466.99,385.36L468.61,405.39L470.22,412.06L471.84,425.42L473.45,458.8L475.07,425.42L476.69,398.71L478.3,425.42L479.92,458.8L481.53,445.45L483.15,472.15L484.77,452.12L486.38,432.09L488,445.45L489.61,418.74L491.23,418.74L492.84,385.36L494.46,412.06L496.08,432.09L497.69,398.71L500.92,398.71L502.54,365.33L504.16,351.98L505.77,358.66L509,392.04L510.62,378.68L512.24,358.66L513.85,358.66L515.47,351.98L517.08,318.6L520.31,372.01L521.93,345.3L523.55,311.92L525.16,311.92L526.78,318.6L528.39,311.92L533.24,398.71L534.86,385.36L541.32,298.57L542.94,298.57L544.55,271.87L546.17,271.87L547.79,258.51L549.4,291.89L551.02,265.19L552.63,258.51L554.25,278.54L555.86,311.92L557.48,338.63L559.1,325.28L560.71,351.98L562.33,338.63L563.94,372.01L565.56,358.66L568.79,311.92L570.41,345.3L572.02,365.33L573.64,331.95L576.87,305.25L578.49,331.95L580.1,345.3L581.72,338.63L583.33,372.01L584.95,385.36L586.57,398.71L588.18,365.33L589.8,398.71L591.41,405.39L593.03,398.71L594.65,378.68L596.26,412.06L597.88,378.68L599.49,405.39L601.11,385.36L602.73,378.68L604.34,398.71L605.96,372.01L607.57,378.68L609.19,345.3L610.8,338.63L612.42,305.25L614.04,298.57L615.65,305.25L617.27,291.89L618.88,265.19L620.5,285.22L622.12,291.89L623.73,325.28L625.35,325.28L626.96,345.3L628.58,345.3L630.2,358.66L631.81,358.66L633.43,351.98L635.04,338.63L636.66,305.25L638.27,338.63L639.89,338.63L641.51,345.3L643.12,365.33L644.74,392.04L646.35,358.66L647.97,385.36L649.59,365.33L651.2,392.04L652.82,405.39L654.43,412.06L656.05,398.71L659.28,432.09L660.9,398.71L662.51,412.06L664.13,412.06L667.36,372.01L668.98,338.63L673.82,251.84L675.44,285.22L678.67,238.49L680.29,238.49L681.9,271.87L683.52,251.84L685.14,285.22L686.75,278.54L688.37,298.57L689.98,271.87L691.6,265.19L693.21,238.49L694.83,225.13L696.45,238.49L698.06,265.19L699.68,278.54L701.29,305.25L702.91,285.22L704.53,251.84L706.14,271.87L707.76,298.57L709.37,291.89L710.99,298.57L712.61,285.22L714.22,285.22L715.84,258.51L717.45,238.49L719.07,238.49L720.68,245.16L722.3,271.87L723.92,305.25L725.53,285.22L727.15,305.25L728.76,311.92L730.38,338.63" style="vector-effect: non-scaling-stroke; fill: none; stroke: rgb(255, 127, 14); stroke-opacity: 1; stroke-width: 2px; opacity: 1;"/></g><g class="points"/><g class="text"/></g></g></g></g><path class="xlines-above crisp" d="M92,609.5H824.38" style="fill: none; stroke-width: 1px; stroke: rgb(36, 36, 36); stroke-opacity: 1;"/><path class="ylines-above crisp" d="M92.5,112V609" style="fill: none; stroke-width: 1px; stroke: rgb(36, 36, 36); stroke-opacity: 1;"/><g class="overlines-above"><path class="xy2-x crisp" d="M0,0" style="fill: none;"/><path class="xy2-y crisp" d="M823.88,112V609" style="fill: none; stroke-width: 1px; stroke: rgb(36, 36, 36); stroke-opacity: 1;"/></g><g class="xaxislayer-above"><path class="xtick ticks crisp" d="M0,610v5" transform="translate(93,0)" style="stroke: rgb(68, 68, 68); stroke-opacity: 1; stroke-width: 1px;"/><path class="xtick ticks crisp" d="M0,610v5" transform="translate(200.73000000000002,0)" style="stroke: rgb(68, 68, 68); stroke-opacity: 1; stroke-width: 1px;"/><path class="xtick ticks crisp" d="M0,610v5" transform="translate(308.45,0)" style="stroke: rgb(68, 68, 68); stroke-opacity: 1; stroke-width: 1px;"/><path class="xtick ticks crisp" d="M0,610v5" transform="translate(416.18,0)" style="stroke: rgb(68, 68, 68); stroke-opacity: 1; stroke-width: 1px;"/><path class="xtick ticks crisp" d="M0,610v5" transform="translate(523.9,0)" style="stroke: rgb(68, 68, 68); stroke-opacity: 1; stroke-width: 1px;"/><path class="xtick ticks crisp" d="M0,610v5" transform="translate(631.63,0)" style="stroke: rgb(68, 68, 68); stroke-opacity: 1; stroke-width: 1px;"/><path class="xtick ticks crisp" d="M0,610v5" transform="translate(739.35,0)" style="stroke: rgb(68, 68, 68); stroke-opacity: 1; stroke-width: 1px;"/><g class="xtick"><text text-anchor="middle" x="0" y="646.2" transform="translate(93,0)" style="font-family: 'Open Sans', verdana, arial, sans-serif; font-size: 26px; fill: rgb(36, 36, 36); fill-opacity: 1; white-space: pre; opacity: 1;">0</text></g><g class="xtick"><text text-anchor="middle" x="0" y="646.2" style="font-family: 'Open Sans', verdana, arial, sans-serif; font-size: 26px; fill: rgb(36, 36, 36); fill-opacity: 1; white-space: pre; opacity: 1;" transform="translate(200.73000000000002,0)">1000</text></g><g class="xtick"><text text-anchor="middle" x="0" y="646.2" style="font-family: 'Open Sans', verdana, arial, sans-serif; font-size: 26px; fill: rgb(36, 36, 36); fill-opacity: 1; white-space: pre; opacity: 1;" transform="translate(308.45,0)">2000</text></g><g class="xtick"><text text-anchor="middle" x="0" y="646.2" style="font-family: 'Open Sans', verdana, arial, sans-serif; font-size: 26px; fill: rgb(36, 36, 36); fill-opacity: 1; white-space: pre; opacity: 1;" transform="translate(416.18,0)">3000</text></g><g class="xtick"><text text-anchor="middle" x="0" y="646.2" style="font-family: 'Open Sans', verdana, arial, sans-serif; font-size: 26px; fill: rgb(36, 36, 36); fill-opacity: 1; white-space: pre; opacity: 1;" transform="translate(523.9,0)">4000</text></g><g class="xtick"><text text-anchor="middle" x="0" y="646.2" style="font-family: 'Open Sans', verdana, arial, sans-serif; font-size: 26px; fill: rgb(36, 36, 36); fill-opacity: 1; white-space: pre; opacity: 1;" transform="translate(631.63,0)">5000</text></g><g class="xtick"><text text-anchor="middle" x="0" y="646.2" style="font-family: 'Open Sans', verdana, arial, sans-serif; font-size: 26px; fill: rgb(36, 36, 36); fill-opacity: 1; white-space: pre; opacity: 1;" transform="translate(739.35,0)">6000</text></g></g><g class="yaxislayer-above"><path class="ytick ticks crisp" d="M92,0h-5" transform="translate(0,602.04)" style="stroke: rgb(68, 68, 68); stroke-opacity: 1; stroke-width: 1px;"/><path class="ytick ticks crisp" d="M92,0h-5" transform="translate(0,542.4)" style="stroke: rgb(68, 68, 68); stroke-opacity: 1; stroke-width: 1px;"/><path class="ytick ticks crisp" d="M92,0h-5" transform="translate(0,482.76)" style="stroke: rgb(68, 68, 68); stroke-opacity: 1; stroke-width: 1px;"/><path class="ytick ticks crisp" d="M92,0h-5" transform="translate(0,423.12)" style="stroke: rgb(68, 68, 68); stroke-opacity: 1; stroke-width: 1px;"/><path class="ytick ticks crisp" d="M92,0h-5" transform="translate(0,363.48)" style="stroke: rgb(68, 68, 68); stroke-opacity: 1; stroke-width: 1px;"/><path class="ytick ticks crisp" d="M92,0h-5" transform="translate(0,303.84000000000003)" style="stroke: rgb(68, 68, 68); stroke-opacity: 1; stroke-width: 1px;"/><path class="ytick ticks crisp" d="M92,0h-5" transform="translate(0,244.2)" style="stroke: rgb(68, 68, 68); stroke-opacity: 1; stroke-width: 1px;"/><path class="ytick ticks crisp" d="M92,0h-5" transform="translate(0,184.56)" style="stroke: rgb(68, 68, 68); stroke-opacity: 1; stroke-width: 1px;"/><path class="ytick ticks crisp" d="M92,0h-5" transform="translate(0,124.92)" style="stroke: rgb(68, 68, 68); stroke-opacity: 1; stroke-width: 1px;"/><g class="ytick"><text text-anchor="end" x="81.8" y="9.1" transform="translate(0,602.04)" style="font-family: 'Open Sans', verdana, arial, sans-serif; font-size: 26px; fill: rgb(36, 36, 36); fill-opacity: 1; white-space: pre; opacity: 1;">0</text></g><g class="ytick"><text text-anchor="end" x="81.8" y="9.1" style="font-family: 'Open Sans', verdana, arial, sans-serif; font-size: 26px; fill: rgb(36, 36, 36); fill-opacity: 1; white-space: pre; opacity: 1;" transform="translate(0,542.4)">10</text></g><g class="ytick"><text text-anchor="end" x="81.8" y="9.1" style="font-family: 'Open Sans', verdana, arial, sans-serif; font-size: 26px; fill: rgb(36, 36, 36); fill-opacity: 1; white-space: pre; opacity: 1;" transform="translate(0,482.76)">20</text></g><g class="ytick"><text text-anchor="end" x="81.8" y="9.1" style="font-family: 'Open Sans', verdana, arial, sans-serif; font-size: 26px; fill: rgb(36, 36, 36); fill-opacity: 1; white-space: pre; opacity: 1;" transform="translate(0,423.12)">30</text></g><g class="ytick"><text text-anchor="end" x="81.8" y="9.1" style="font-family: 'Open Sans', verdana, arial, sans-serif; font-size: 26px; fill: rgb(36, 36, 36); fill-opacity: 1; white-space: pre; opacity: 1;" transform="translate(0,363.48)">40</text></g><g class="ytick"><text text-anchor="end" x="81.8" y="9.1" style="font-family: 'Open Sans', verdana, arial, sans-serif; font-size: 26px; fill: rgb(36, 36, 36); fill-opacity: 1; white-space: pre; opacity: 1;" transform="translate(0,303.84000000000003)">50</text></g><g class="ytick"><text text-anchor="end" x="81.8" y="9.1" style="font-family: 'Open Sans', verdana, arial, sans-serif; font-size: 26px; fill: rgb(36, 36, 36); fill-opacity: 1; white-space: pre; opacity: 1;" transform="translate(0,244.2)">60</text></g><g class="ytick"><text text-anchor="end" x="81.8" y="9.1" style="font-family: 'Open Sans', verdana, arial, sans-serif; font-size: 26px; fill: rgb(36, 36, 36); fill-opacity: 1; white-space: pre; opacity: 1;" transform="translate(0,184.56)">70</text></g><g class="ytick"><text text-anchor="end" x="81.8" y="9.1" style="font-family: 'Open Sans', verdana, arial, sans-serif; font-size: 26px; fill: rgb(36, 36, 36); fill-opacity: 1; white-space: pre; opacity: 1;" transform="translate(0,124.92)">80</text></g></g><g class="overaxes-above"><g class="xy2-x"/><g class="xy2-y"><path class="y2tick ticks crisp" d="M824.38,0h5" transform="translate(0,570.8)" style="stroke: rgb(68, 68, 68); stroke-opacity: 1; stroke-width: 1px;"/><path class="y2tick ticks crisp" d="M824.38,0h5" transform="translate(0,504.04)" style="stroke: rgb(68, 68, 68); stroke-opacity: 1; stroke-width: 1px;"/><path class="y2tick ticks crisp" d="M824.38,0h5" transform="translate(0,437.28)" style="stroke: rgb(68, 68, 68); stroke-opacity: 1; stroke-width: 1px;"/><path class="y2tick ticks crisp" d="M824.38,0h5" transform="translate(0,370.51)" style="stroke: rgb(68, 68, 68); stroke-opacity: 1; stroke-width: 1px;"/><path class="y2tick ticks crisp" d="M824.38,0h5" transform="translate(0,303.75)" style="stroke: rgb(68, 68, 68); stroke-opacity: 1; stroke-width: 1px;"/><path class="y2tick ticks crisp" d="M824.38,0h5" transform="translate(0,236.99)" style="stroke: rgb(68, 68, 68); stroke-opacity: 1; stroke-width: 1px;"/><path class="y2tick ticks crisp" d="M824.38,0h5" transform="translate(0,170.23)" style="stroke: rgb(68, 68, 68); stroke-opacity: 1; stroke-width: 1px;"/><g class="y2tick"><text text-anchor="start" x="834.58" y="9.1" transform="translate(0,570.8)" style="font-family: 'Open Sans', verdana, arial, sans-serif; font-size: 26px; fill: rgb(36, 36, 36); fill-opacity: 1; white-space: pre; opacity: 1;">30</text></g><g class="y2tick"><text text-anchor="start" x="834.58" y="9.1" style="font-family: 'Open Sans', verdana, arial, sans-serif; font-size: 26px; fill: rgb(36, 36, 36); fill-opacity: 1; white-space: pre; opacity: 1;" transform="translate(0,504.04)">40</text></g><g class="y2tick"><text text-anchor="start" x="834.58" y="9.1" style="font-family: 'Open Sans', verdana, arial, sans-serif; font-size: 26px; fill: rgb(36, 36, 36); fill-opacity: 1; white-space: pre; opacity: 1;" transform="translate(0,437.28)">50</text></g><g class="y2tick"><text text-anchor="start" x="834.58" y="9.1" style="font-family: 'Open Sans', verdana, arial, sans-serif; font-size: 26px; fill: rgb(36, 36, 36); fill-opacity: 1; white-space: pre; opacity: 1;" transform="translate(0,370.51)">60</text></g><g class="y2tick"><text text-anchor="start" x="834.58" y="9.1" style="font-family: 'Open Sans', verdana, arial, sans-serif; font-size: 26px; fill: rgb(36, 36, 36); fill-opacity: 1; white-space: pre; opacity: 1;" transform="translate(0,303.75)">70</text></g><g class="y2tick"><text text-anchor="start" x="834.58" y="9.1" style="font-family: 'Open Sans', verdana, arial, sans-serif; font-size: 26px; fill: rgb(36, 36, 36); fill-opacity: 1; white-space: pre; opacity: 1;" transform="translate(0,236.99)">80</text></g><g class="y2tick"><text text-anchor="start" x="834.58" y="9.1" style="font-family: 'Open Sans', verdana, arial, sans-serif; font-size: 26px; fill: rgb(36, 36, 36); fill-opacity: 1; white-space: pre; opacity: 1;" transform="translate(0,170.23)">90</text></g></g></g></g><g class="subplot xy2"/></g><g class="polarlayer"/><g class="smithlayer"/><g class="ternarylayer"/><g class="geolayer"/><g class="funnelarealayer"/><g class="pielayer"/><g class="iciclelayer"/><g class="treemaplayer"/><g class="sunburstlayer"/><g class="glimages"/><defs id="topdefs-116830"><g class="clips"/><clipPath id="legend116830"><rect width="350" height="84" x="0" y="0"/></clipPath></defs><g class="layer-above"><g class="imagelayer"/><g class="shapelayer"/></g><g class="infolayer"><g class="legend" pointer-events="all" transform="translate(520.35,12.600000000000023)"><rect class="bg" shape-rendering="crispEdges" style="stroke: rgb(68, 68, 68); stroke-opacity: 1; fill: rgb(255, 255, 255); fill-opacity: 1; stroke-width: 0px;" width="350" height="84" x="0" y="0"/><g class="scrollbox" transform="" clip-path="url(#legend116830)"><g class="groups"><g class="traces" transform="translate(0,23.400000000000002)" style="opacity: 1;"><text class="legendtext" text-anchor="start" x="40" y="10.14" style="font-family: 'Open Sans', verdana, arial, sans-serif; font-size: 26px; fill: rgb(36, 36, 36); fill-opacity: 1; white-space: pre;">DC Total Energy</text><g class="layers" style="opacity: 1;"><g class="legendfill"/><g class="legendlines"><path class="js-line" d="M5,0h30" style="fill: none; stroke: rgb(31, 119, 180); stroke-opacity: 1; stroke-width: 2px;"/></g><g class="legendsymbols"><g class="legendpoints"/></g></g><rect class="legendtoggle" x="0" y="-18.400000000000002" width="344.28125" height="36.800000000000004" style="fill: rgb(0, 0, 0); fill-opacity: 0;"/></g><g class="traces" transform="translate(0,60.2)" style="opacity: 1;"><text class="legendtext" text-anchor="start" x="40" y="10.14" style="font-family: 'Open Sans', verdana, arial, sans-serif; font-size: 26px; fill: rgb(36, 36, 36); fill-opacity: 1; white-space: pre;">Grid Renewable Energy</text><g class="layers" style="opacity: 1;"><g class="legendfill"/><g class="legendlines"><path class="js-line" d="M5,0h30" style="fill: none; stroke: rgb(255, 127, 14); stroke-opacity: 1; stroke-width: 2px;"/></g><g class="legendsymbols"><g class="legendpoints"/></g></g><rect class="legendtoggle" x="0" y="-18.400000000000002" width="344.28125" height="36.800000000000004" style="fill: rgb(0, 0, 0); fill-opacity: 0;"/></g></g></g><rect class="scrollbar" rx="20" ry="3" width="0" height="0" style="fill: rgb(128, 139, 164); fill-opacity: 1;" x="0" y="0"/></g><g class="g-gtitle"><text class="gtitle" x="47.5" y="56" text-anchor="start" dy="0em" style="font-family: 'Open Sans', verdana, arial, sans-serif; font-size: 36px; fill: rgb(36, 36, 36); opacity: 1; font-weight: normal; white-space: pre;">Clean Energy Adaptability</text></g><g class="g-xtitle"><text class="xtitle" x="458.19" y="687.903125" text-anchor="middle" style="font-family: 'Open Sans', verdana, arial, sans-serif; font-size: 31px; fill: rgb(36, 36, 36); opacity: 1; font-weight: normal; white-space: pre;">Time (minutes)</text></g><g class="g-ytitle" transform="translate(18.9658203125,0)"><text class="ytitle" transform="rotate(-90,12.034374999999997,360.5)" x="12.034374999999997" y="360.5" text-anchor="middle" style="font-family: 'Open Sans', verdana, arial, sans-serif; font-size: 31px; fill: rgb(36, 36, 36); opacity: 1; font-weight: normal; white-space: pre;">Consumption <tspan style="font-weight:bold">kWh</tspan></text></g><g class="g-y2title"><text class="y2title" transform="rotate(-90,904.340625,360.5)" x="904.340625" y="360.5" text-anchor="middle" style="font-family: 'Open Sans', verdana, arial, sans-serif; font-size: 31px; fill: rgb(36, 36, 36); opacity: 1; font-weight: normal; white-space: pre;">Production <tspan style="font-weight:bold">mWh</tspan></text></g></g></svg>