<?xml version="1.0" encoding="UTF-8" standalone="no"?>
<!-- Created with Inkscape (http://www.inkscape.org/) -->

<svg
   width="48"
   height="48"
   viewBox="0 0 12.7 12.7"
   version="1.1"
   id="svg315"
   inkscape:version="1.2.1 (9c6d41e410, 2022-07-14)"
   sodipodi:docname="icon_48.svg"
   xmlns:inkscape="http://www.inkscape.org/namespaces/inkscape"
   xmlns:sodipodi="http://sodipodi.sourceforge.net/DTD/sodipodi-0.dtd"
   xmlns="http://www.w3.org/2000/svg"
   xmlns:svg="http://www.w3.org/2000/svg">
  <sodipodi:namedview
     id="namedview317"
     pagecolor="#ffffff"
     bordercolor="#666666"
     borderopacity="1.0"
     inkscape:showpageshadow="2"
     inkscape:pageopacity="0.0"
     inkscape:pagecheckerboard="0"
     inkscape:deskcolor="#d1d1d1"
     inkscape:document-units="px"
     showgrid="false"
     inkscape:zoom="8.8391522"
     inkscape:cx="6.2788827"
     inkscape:cy="25.850896"
     inkscape:window-width="1920"
     inkscape:window-height="1058"
     inkscape:window-x="-8"
     inkscape:window-y="-8"
     inkscape:window-maximized="1"
     inkscape:current-layer="layer1" />
  <defs
     id="defs312" />
  <g
     inkscape:label="Calque 1"
     inkscape:groupmode="layer"
     id="layer1">
    <path
       style="fill:#ea4335;fill-opacity:1;stroke:#2a2a2a;stroke-width:0.00318035;stroke-dasharray:none"
       d="M 4.9511352,3.4471054 3.8615048,3.4437431 3.8532913,3.2283147 C 3.8379302,2.8254929 3.843487,2.3205335 3.8643294,2.2291704 3.9485102,1.8599442 4.3449462,1.5812947 4.9701127,1.4519318 5.2415916,1.3957568 5.4643094,1.3737909 5.8468393,1.365477 7.0791581,1.338706 7.8688548,1.6255265 8.1241517,2.1926582 c 0.072004,0.1599524 0.074773,0.1876972 0.074773,0.7494651 V 3.4568184 L 7.1198514,3.4536509 C 6.5263563,3.4519025 5.5504362,3.4489681 4.9511397,3.4471219 Z M 4.9676177,2.8470776 C 5.2554568,2.7054131 5.2565011,2.263816 4.9693495,2.1102307 4.9288191,2.0885483 4.886474,2.0795655 4.8049435,2.075274 4.7014887,2.0698333 4.690497,2.0718751 4.6152179,2.1101855 4.4712449,2.1834672 4.3927693,2.3139851 4.3927693,2.4801727 c 0,0.1572013 0.073566,0.2881259 0.202736,0.3608144 0.1195205,0.067255 0.2436641,0.06928 0.372102,0.00606 z"
       id="path1775" />
    <path
       style="fill:#fbbc05;fill-opacity:1;stroke:#2a2a2a;stroke-width:0.00318035;stroke-dasharray:none"
       d="M 3.2807592,5.0261214 C 2.803244,4.4778018 2.3961195,4.0088594 2.3760372,3.984027 2.3410283,3.9407511 2.3405147,3.9382696 2.3635348,3.9242949 2.4199521,3.890002 2.5574374,3.8345606 2.650267,3.8086262 l 0.1000878,-0.027966 2.725124,-0.00369 2.725123,-0.00369 -0.00464,0.5596777 C 8.1914359,4.8879783 8.1910896,4.8936617 8.1588567,5.0165253 8.0500669,5.4311471 7.7696181,5.7010878 7.3256849,5.8184759 7.1460429,5.8659781 7.0510347,5.8692438 5.847126,5.8692964 4.84651,5.8693351 4.6463688,5.8723897 4.5466894,5.8891191 4.424121,5.909651 4.2774577,5.9552985 4.1962006,5.9981596 l -0.047278,0.024955 z"
       id="path2848" />
    <path
       style="fill:#34a853;fill-opacity:1;stroke:#2a2a2a;stroke-width:0.00318035;stroke-dasharray:none"
       d="M 2.5939606,8.2827657 C 2.2518815,8.193471 1.9793495,7.9444994 1.7927475,7.5508179 1.7238062,7.4053694 1.6351724,7.1280259 1.6002532,6.9484838 1.5106587,6.4878198 1.4921582,5.8422345 1.5552433,5.3778515 1.6231182,4.8782096 1.785334,4.4672475 2.0213651,4.196964 L 2.0810051,4.128669 2.9894813,5.1726915 3.897958,6.2167138 3.844483,6.2845928 C 3.7072349,6.4588073 3.6195027,6.6707931 3.5755357,6.9344452 3.5535803,7.0661271 3.5510549,7.1444129 3.5510549,7.6943918 V 8.3075309 L 3.1162984,8.3065791 C 2.744081,8.3057642 2.6689396,8.3023381 2.5939606,8.2827728 Z"
       id="path3990" />
    <path
       style="fill:#4285f4;fill-opacity:1;stroke:#2a2a2a;stroke-width:0.00318035;stroke-dasharray:none"
       d="M 5.6278998,10.653596 C 4.8987581,10.587519 4.4131103,10.413288 4.1235243,10.113883 3.9870611,9.972794 3.8954842,9.803172 3.8641133,9.6333958 3.8537562,9.5774556 3.8509316,9.219814 3.8539702,8.3528044 l 0.00419,-1.2029799 0.032614,-0.1230344 C 4.0114099,6.5719471 4.2842288,6.3169577 4.7855738,6.1904814 4.8612328,6.1714093 5.0190991,6.167959 6.1721056,6.1604361 7.6038878,6.1510584 7.5299888,6.1553132 7.7586337,6.0690433 7.9657948,5.9908771 8.1441958,5.8487519 8.2663238,5.6645813 8.3263648,5.5740371 8.4123772,5.3797299 8.4419768,5.2677521 8.4980423,5.055669 8.5052661,4.9467709 8.5053441,4.312785 l 7.36e-5,-0.5992471 0.4535274,0.0054 c 0.5052167,0.00604 0.5189773,0.00797 0.7037477,0.099829 0.4837922,0.2405003 0.7828232,0.8480323 0.8564502,1.7400165 0.0188,0.2276413 0.01588,0.7463144 -0.0053,0.9507418 -0.08547,0.8240873 -0.368267,1.3573733 -0.8511403,1.6050571 -0.07306,0.037478 -0.1768047,0.077578 -0.2493737,0.096397 L 9.2890736,8.2431981 7.6523995,8.2429405 6.0157246,8.2426826 V 8.4109243 8.5791658 H 7.1104448 8.2051652 L 8.2050168,9.1580189 C 8.2048606,9.7807902 8.2027655,9.8053063 8.137434,9.9421362 7.9664589,10.300322 7.5020033,10.531349 6.7538831,10.630339 c -0.1492894,0.01973 -0.9761616,0.03682 -1.1259979,0.02323 z M 7.4254005,9.9247846 C 7.5139735,9.8842966 7.5721429,9.8286516 7.6179165,9.7407024 7.6564775,9.6666284 7.6603295,9.6493374 7.6605855,9.549319 7.660813,9.4639001 7.6549326,9.4260314 7.6341788,9.3795786 7.5975449,9.2975794 7.5247618,9.2177224 7.4490587,9.176487 7.3933087,9.146132 7.3714487,9.141972 7.2668523,9.141972 c -0.1045953,0 -0.126456,0.00411 -0.1822062,0.034515 -0.075809,0.041284 -0.1486127,0.121229 -0.1849666,0.2030916 -0.040316,0.090734 -0.037662,0.2430358 0.00586,0.3390173 0.092976,0.2050473 0.3229356,0.2962541 0.519861,0.2061887 z"
       id="path4720" />
    <path
       style="fill:#000000;fill-opacity:0;stroke:#2a2a2a;stroke-width:0.177429;stroke-dasharray:none"
       id="path5769"
       sodipodi:type="arc"
       sodipodi:cx="12.083987"
       sodipodi:cy="-3.6168551"
       sodipodi:rx="1.3468715"
       sodipodi:ry="1.2960458"
       sodipodi:start="0"
       sodipodi:end="6.2773432"
       sodipodi:arc-type="arc"
       d="m 13.430859,-3.6168551 a 1.3468715,1.2960458 0 0 1 -1.344905,1.2960444 1.3468715,1.2960458 0 0 1 -1.348833,-1.2922586 1.3468715,1.2960458 0 0 1 1.340965,-1.2998192 1.3468715,1.2960458 0 0 1 1.35275,1.2884618"
       sodipodi:open="true"
       transform="matrix(0.58414394,0.81165008,-0.79258663,0.60975933,0,0)" />
    <path
       style="fill:none;stroke:#2a2a2a;stroke-width:0.287853;stroke-linecap:butt;stroke-linejoin:miter;stroke-dasharray:none;stroke-opacity:1"
       d="m 10.656913,8.6219566 1.125999,1.6427794"
       id="path5869" />
    <rect
       style="fill:#ea4335;fill-opacity:1;stroke:#ea4335;stroke-width:0;stroke-dasharray:none;stroke-opacity:1"
       id="rect5923"
       width="1.6079243"
       height="0.36362031"
       x="6.5970697"
       y="3.4172816"
       ry="0" />
    <rect
       style="fill:#ea4335;fill-opacity:1;stroke:#ea4335;stroke-width:0;stroke-dasharray:none;stroke-opacity:1"
       id="rect6253"
       width="2.7856603"
       height="0.24835682"
       x="4.4406567"
       y="0.89044338"
       transform="matrix(0.65559688,0.75511108,-0.73481448,0.67826815,0,0)" />
    <rect
       style="fill:#ea4335;fill-opacity:1;stroke:#ea4335;stroke-width:0;stroke-dasharray:none;stroke-opacity:1"
       id="rect6255"
       width="2.7856603"
       height="0.24835682"
       x="4.4557824"
       y="0.81966329"
       transform="matrix(0.65559688,0.75511108,-0.73481448,0.67826815,0,0)" />
    <g
       id="g6263"
       style="fill:#34a853;fill-opacity:1"
       transform="matrix(1.1323744,0,0,1.1707668,-3.1486282,-2.7715257)">
      <rect
         style="fill:#34a853;fill-opacity:1;stroke:#ea4335;stroke-width:0;stroke-dasharray:none;stroke-opacity:1"
         id="rect6257"
         width="2.4143498"
         height="0.21604495"
         x="7.4664698"
         y="0.2867384"
         transform="matrix(0.66799742,0.74416359,-0.74596706,0.66598285,0,0)" />
      <rect
         style="fill:#34a853;fill-opacity:1;stroke:#ea4335;stroke-width:0;stroke-dasharray:none;stroke-opacity:1"
         id="rect6259"
         width="2.4143498"
         height="0.21604495"
         x="7.4795794"
         y="0.22516681"
         transform="matrix(0.66799742,0.74416359,-0.74596706,0.66598285,0,0)" />
    </g>
  </g>
</svg>
