<?xml version="1.0" encoding="UTF-8" standalone="no"?>
<!-- Created with Inkscape (http://www.inkscape.org/) -->

<svg
   width="16"
   height="16"
   viewBox="0 0 16 16"
   version="1.1"
   id="svg5"
   xml:space="preserve"
   inkscape:version="1.2.1 (9c6d41e410, 2022-07-14)"
   sodipodi:docname="icon_16.svg"
   xmlns:inkscape="http://www.inkscape.org/namespaces/inkscape"
   xmlns:sodipodi="http://sodipodi.sourceforge.net/DTD/sodipodi-0.dtd"
   xmlns="http://www.w3.org/2000/svg"
   xmlns:svg="http://www.w3.org/2000/svg"><sodipodi:namedview
     id="namedview7"
     pagecolor="#505050"
     bordercolor="#ffffff"
     borderopacity="1"
     inkscape:showpageshadow="0"
     inkscape:pageopacity="0"
     inkscape:pagecheckerboard="1"
     inkscape:deskcolor="#505050"
     inkscape:document-units="px"
     showgrid="false"
     inkscape:zoom="45.254834"
     inkscape:cx="5.2922523"
     inkscape:cy="8.7614949"
     inkscape:window-width="1920"
     inkscape:window-height="1058"
     inkscape:window-x="-8"
     inkscape:window-y="-8"
     inkscape:window-maximized="1"
     inkscape:current-layer="layer1" /><defs
     id="defs2" /><g
     inkscape:label="Calque 1"
     inkscape:groupmode="layer"
     id="layer1"><path
       style="fill:#ea4335;fill-opacity:1;stroke:#2a2a2a;stroke-width:0.00276214;stroke-dasharray:none"
       d="m 7.1529024,5.3115884 -0.9622527,-0.00288 -0.00726,-0.1840051 c -0.01357,-0.344066 -0.00864,-0.7753717 0.00976,-0.853409 0.074338,-0.3153703 0.4244326,-0.553377 0.9765173,-0.6638711 0.2397432,-0.047982 0.4364254,-0.066741 0.7742373,-0.073844 1.088261,-0.022882 1.7856424,0.2221191 2.0110951,0.7065291 0.063587,0.1366233 0.066031,0.160319 0.066031,0.6401488 v 0.4396205 l -0.9529365,-0.0027 c -0.5241153,-0.00149 -1.3859506,-0.004 -1.9151896,-0.00558 z m 0.014551,-0.5125088 c 0.2541976,-0.1210032 0.25512,-0.4981873 0.00154,-0.629371 -0.035789,-0.018515 -0.073188,-0.026204 -0.1451874,-0.02985 -0.091362,-0.00463 -0.1010691,-0.0029 -0.1675451,0.029827 -0.1271451,0.062593 -0.196444,0.1740755 -0.196444,0.3160225 0,0.1342717 0.064965,0.2461013 0.1790354,0.3081859 0.1055476,0.057446 0.2151801,0.059176 0.3286018,0.00519 z"
       id="path1775" /><path
       style="fill:#fbbc05;fill-opacity:1;stroke:#2a2a2a;stroke-width:0.00276214;stroke-dasharray:none"
       d="M 5.6777929,6.6602908 C 5.2560994,6.1919484 4.8965676,5.7914054 4.8788332,5.7701951 c -0.030899,-0.036956 -0.03136,-0.039084 -0.011049,-0.051019 0.049821,-0.029274 0.1712341,-0.076647 0.2532151,-0.098799 l 0.088388,-0.023883 2.406557,-0.00316 2.4065567,-0.00316 -0.0041,0.478044 c -0.004,0.4740695 -0.0043,0.478924 -0.032763,0.5838666 -0.096072,0.3541454 -0.3437374,0.5847128 -0.7357742,0.684979 -0.1586413,0.040574 -0.2425429,0.043363 -1.3057154,0.043408 -0.8836443,3.32e-5 -1.0603889,0.00264 -1.1484156,0.016917 -0.1082432,0.017555 -0.2377604,0.056526 -0.3095177,0.093134 l -0.041751,0.0213 z"
       id="path2848" /><path
       style="fill:#34a853;fill-opacity:1;stroke:#2a2a2a;stroke-width:0.00276214;stroke-dasharray:none"
       d="M 5.0712814,9.4419244 C 4.7691911,9.3656538 4.5285181,9.1529972 4.3637299,8.8167377 4.3028477,8.6925042 4.2245753,8.4556135 4.1937382,8.3022593 4.1146173,7.9087875 4.0982794,7.3573666 4.1539899,6.960718 4.2139304,6.5339531 4.3571829,6.1829334 4.565622,5.9520731 L 4.618291,5.8937391 5.4205665,6.7854816 6.222842,7.6772241 6.175618,7.7352021 C 6.0544144,7.8840074 5.976939,8.0650731 5.9381139,8.2902676 5.918722,8.4027442 5.916495,8.4696115 5.916495,8.9393695 v 0.523708 L 5.5325581,9.4622643 C 5.2038533,9.4615682 5.1374953,9.458642 5.0712814,9.4419246 Z"
       id="path3990" /><path
       style="fill:#4285f4;fill-opacity:1;stroke:#2a2a2a;stroke-width:0.00276214;stroke-dasharray:none"
       d="M 7.7505532,11.466948 C 7.1066481,11.410509 6.6777726,11.261691 6.4220393,11.005957 6.3015286,10.885447 6.2206568,10.740566 6.1929534,10.595553 c -0.00913,-0.04778 -0.011628,-0.353259 -0.00895,-1.093806 l 0.00371,-1.0275142 0.028815,-0.105088 C 6.3230531,7.9806457 6.5639818,7.762849 7.0067186,7.6548202 7.0735316,7.6385177 7.2129458,7.6355946 8.2311648,7.629147 9.4955718,7.6211405 9.4303114,7.6247765 9.6322277,7.5510861 9.8151725,7.4843196 9.9727173,7.3629243 10.080569,7.2056193 10.133591,7.1282841 10.209548,6.9623147 10.23569,6.8666698 10.2852,6.685522 10.29158,6.5925074 10.29165,6.0509932 l 6.5e-5,-0.5118416 0.40051,0.00462 c 0.446157,0.00515 0.458309,0.00681 0.62148,0.08527 0.427236,0.2054215 0.691311,0.7243395 0.756331,1.4862197 0.01659,0.1944391 0.01404,0.6374577 -0.0047,0.8120679 -0.07548,0.7038865 -0.325218,1.159388 -0.751642,1.3709447 -0.06452,0.03201 -0.156137,0.066264 -0.22022,0.082338 L 10.983753,9.4081365 9.5384057,9.4079166 8.093058,9.4076961 v 0.1437009 0.1437 h 0.9667476 0.9667474 l -1.31e-4,0.494422 c -1.42e-4,0.53194 -0.002,0.55288 -0.059686,0.669752 -0.1509872,0.30594 -0.561149,0.503271 -1.2218142,0.587822 -0.1318389,0.01687 -0.8620485,0.03145 -0.994369,0.01985 z M 9.3379265,10.84444 c 0.078216,-0.0346 0.1295903,-0.08211 0.1700102,-0.157233 0.034043,-0.06327 0.037449,-0.07804 0.037685,-0.163469 2.011e-4,-0.07296 -0.005,-0.105306 -0.023325,-0.144984 -0.032342,-0.07004 -0.096626,-0.138248 -0.1634791,-0.173467 -0.049232,-0.02594 -0.068536,-0.02947 -0.160905,-0.02947 -0.092369,0 -0.1116727,0.0035 -0.160905,0.02947 -0.066946,0.03527 -0.1312408,0.103547 -0.1633446,0.173467 -0.035586,0.0775 -0.033261,0.207585 0.00517,0.28957 0.082107,0.175138 0.2851844,0.253042 0.4590893,0.176116 z"
       id="path4720" /><path
       style="fill:#000000;fill-opacity:0;stroke:#2a2a2a;stroke-width:0.154058;stroke-dasharray:none"
       id="path5769"
       sodipodi:type="arc"
       sodipodi:cx="14.001238"
       sodipodi:cy="-3.9730694"
       sodipodi:rx="1.1638741"
       sodipodi:ry="1.130729"
       sodipodi:start="0"
       sodipodi:end="6.2773432"
       sodipodi:arc-type="arc"
       d="m 15.165112,-3.9730694 a 1.1638741,1.130729 0 0 1 -1.162174,1.1307277 1.1638741,1.130729 0 0 1 -1.165569,-1.1274248 1.1638741,1.130729 0 0 1 1.158769,-1.134021 1.1638741,1.130729 0 0 1 1.168954,1.1241123"
       sodipodi:open="true"
       transform="rotate(53.347061)" /><path
       style="fill:none;stroke:#2a2a2a;stroke-width:0.25;stroke-linecap:butt;stroke-linejoin:miter;stroke-dasharray:none;stroke-opacity:1"
       d="m 12.191676,9.7316412 0.994369,1.4031658"
       id="path5869" /><rect
       style="fill:#ea4335;fill-opacity:1;stroke:#ea4335;stroke-width:0;stroke-dasharray:none;stroke-opacity:1"
       id="rect5923"
       width="1.419958"
       height="0.31058306"
       x="8.6064272"
       y="5.2861147"
       ry="0" /><rect
       style="fill:#ea4335;fill-opacity:1;stroke:#ea4335;stroke-width:0;stroke-dasharray:none;stroke-opacity:1"
       id="rect6253"
       width="2.4143498"
       height="0.21604495"
       x="7.4664698"
       y="0.2867384"
       transform="matrix(0.66799742,0.74416359,-0.74596706,0.66598285,0,0)" /><rect
       style="fill:#ea4335;fill-opacity:1;stroke:#ea4335;stroke-width:0;stroke-dasharray:none;stroke-opacity:1"
       id="rect6255"
       width="2.4143498"
       height="0.21604495"
       x="7.4795794"
       y="0.22516681"
       transform="matrix(0.66799742,0.74416359,-0.74596706,0.66598285,0,0)" /><g
       id="g6263"
       style="fill:#34a853;fill-opacity:1"><rect
         style="fill:#34a853;fill-opacity:1;stroke:#ea4335;stroke-width:0;stroke-dasharray:none;stroke-opacity:1"
         id="rect6257"
         width="2.4143498"
         height="0.21604495"
         x="7.4664698"
         y="0.2867384"
         transform="matrix(0.66799742,0.74416359,-0.74596706,0.66598285,0,0)" /><rect
         style="fill:#34a853;fill-opacity:1;stroke:#ea4335;stroke-width:0;stroke-dasharray:none;stroke-opacity:1"
         id="rect6259"
         width="2.4143498"
         height="0.21604495"
         x="7.4795794"
         y="0.22516681"
         transform="matrix(0.66799742,0.74416359,-0.74596706,0.66598285,0,0)" /></g></g></svg>
